# Blender v2.90.0 OBJ File: ''
# www.blender.org
mtllib Fork.mtl
o Plane
v -1.684698 -0.195209 0.692373
v -0.753818 -0.270615 0.654322
v -1.684698 -0.195209 -0.692557
v -0.753818 -0.270615 -0.654505
v -1.684698 -0.194826 -0.383680
v -1.684698 -0.199863 -0.191372
v -1.684698 -0.199863 0.191189
v -1.684698 -0.194826 0.383496
v -0.574843 -0.263938 0.497433
v -0.198563 -0.237349 0.336513
v -0.198563 -0.237349 -0.336696
v -0.574843 -0.263938 -0.497617
v -3.467870 0.254185 0.531673
v -3.467870 0.254185 -0.531857
v -3.473255 0.254185 -0.414916
v -3.490563 0.254185 -0.074212
v -3.490563 0.254185 0.074028
v -3.473255 0.254185 0.414733
v 4.880346 -0.118956 0.182361
v 4.880346 -0.118956 -0.182545
v -1.684698 -0.038406 0.383496
v -1.684698 -0.038794 0.692373
v -0.753818 -0.115689 0.654322
v -0.574843 -0.108658 -0.497617
v -0.753818 -0.115689 -0.654505
v -1.684698 -0.038794 -0.692557
v -1.684698 -0.038406 -0.383680
v -1.684698 -0.043504 -0.191372
v -1.684698 -0.043504 0.191189
v -0.574843 -0.108658 0.497433
v -0.198563 -0.081577 0.336513
v -0.198563 -0.081577 -0.336696
v -3.473255 0.415529 0.414733
v -3.467870 0.415529 0.531673
v -3.467870 0.415529 -0.531857
v -3.473255 0.415529 -0.414916
v -3.490563 0.415529 -0.074212
v -3.490563 0.415529 0.074028
v 4.880346 0.037397 0.182361
v 4.880346 0.037397 -0.182545
v 3.864565 0.010758 -0.213375
v 2.848783 0.071046 -0.244205
v 1.833001 0.010758 -0.275036
v 0.817219 -0.118956 -0.305866
v 0.817219 -0.118956 0.305682
v 1.833001 0.010758 0.274852
v 2.848783 0.071046 0.244022
v 3.864565 0.010758 0.213191
v 3.864565 0.166780 -0.213375
v 2.848783 0.227483 -0.244205
v 1.833001 0.166780 -0.275036
v 0.817219 0.037397 -0.305866
v 0.817219 0.037397 0.305682
v 1.833001 0.166780 0.274852
v 2.848783 0.227483 0.244022
v 3.864565 0.166780 0.213191
vt 0.000000 0.800000
vt 0.000000 1.000000
vt 1.000000 1.000000
vt 1.000000 0.800000
vt 0.000000 0.000000
vt 0.000000 0.200000
vt 1.000000 0.200000
vt 1.000000 0.000000
vt 0.000000 0.400000
vt 1.000000 0.400000
vt 0.000000 0.600000
vt 1.000000 0.600000
vt 0.000000 0.400000
vt 0.000000 0.600000
vt 0.000000 0.800000
vt 0.000000 1.000000
vt 0.000000 0.000000
vt 0.000000 0.200000
vt 1.000000 0.600000
vt 1.000000 0.600000
vt 1.000000 0.400000
vt 1.000000 0.400000
vt 0.000000 0.800000
vt 1.000000 0.800000
vt 1.000000 1.000000
vt 0.000000 1.000000
vt 0.000000 0.000000
vt 1.000000 0.000000
vt 1.000000 0.200000
vt 0.000000 0.200000
vt 1.000000 0.400000
vt 0.000000 0.400000
vt 1.000000 0.600000
vt 0.000000 0.600000
vt 0.000000 0.600000
vt 0.000000 0.400000
vt 0.000000 1.000000
vt 0.000000 0.800000
vt 0.000000 0.200000
vt 0.000000 0.000000
vt 1.000000 0.600000
vt 1.000000 0.400000
vt 1.000000 0.400000
vt 1.000000 0.600000
vt 1.000000 0.600000
vt 1.000000 0.600000
vt 1.000000 0.400000
vt 1.000000 0.400000
vt 1.000000 0.400000
vt 1.000000 0.400000
vt 1.000000 0.400000
vt 1.000000 0.400000
vt 1.000000 0.600000
vt 1.000000 0.600000
vt 1.000000 0.600000
vt 1.000000 0.600000
vn -0.4035 -0.8683 0.2885
vn -0.1240 -0.7081 -0.6951
vn 0.2491 -0.6709 -0.6984
vn 0.3424 -0.7798 -0.5241
vn -0.1240 -0.7081 0.6951
vn -0.4035 -0.8683 -0.2885
vn 0.3424 -0.7798 0.5241
vn 0.2491 -0.6709 0.6984
vn -0.4024 -0.8865 0.2282
vn 0.1754 -0.7579 0.6283
vn -0.4024 -0.8865 -0.2282
vn 0.1754 -0.7579 -0.6283
vn -0.6550 -0.4973 0.5690
vn -0.6550 -0.4973 -0.5690
vn -0.6526 -0.4939 0.5745
vn -0.6507 -0.5003 -0.5712
vn -0.6507 -0.5003 0.5712
vn -0.6526 -0.4939 -0.5745
vn -0.0429 -0.6973 -0.7154
vn 0.5496 -0.6182 -0.5618
vn 0.5496 -0.6182 0.5618
vn -0.0429 -0.6973 0.7154
vn -0.2069 0.9248 0.3193
vn 0.3699 0.7043 -0.6059
vn 0.3195 0.6035 -0.7305
vn 0.0824 0.6589 -0.7476
vn 0.0824 0.6589 0.7476
vn 0.3195 0.6035 0.7305
vn 0.3699 0.7043 0.6059
vn -0.2069 0.9248 -0.3193
vn 0.1096 0.7430 0.6602
vn -0.2434 0.8924 0.3800
vn 0.1096 0.7430 -0.6602
vn -0.2434 0.8924 -0.3800
vn -0.5198 0.6562 -0.5470
vn -0.5198 0.6562 0.5470
vn -0.5072 0.6600 -0.5542
vn -0.5276 0.6511 0.5456
vn -0.5276 0.6511 -0.5456
vn -0.5072 0.6600 0.5542
vn 0.0871 0.7104 -0.6983
vn 0.0871 0.7104 0.6983
vn 0.6175 0.5375 0.5742
vn 0.6175 0.5375 -0.5742
vn 0.1070 -0.7018 -0.7042
vn -0.0642 0.7020 -0.7092
vn 0.1070 -0.7018 0.7042
vn -0.0642 0.7020 0.7092
vn 0.0870 -0.6952 0.7135
vn -0.0458 0.7123 0.7003
vn 0.0226 -0.6932 0.7203
vn 0.0202 0.7201 0.6936
vn 0.0226 -0.6932 -0.7203
vn 0.0202 0.7201 -0.6936
vn 0.0870 -0.6952 -0.7135
vn -0.0458 0.7123 -0.7003
usemtl None
s 1
f 5/1/1 3/2/2 4/3/3 12/4/4
f 1/5/5 8/6/6 9/7/7 2/8/8
f 8/6/6 7/9/9 10/10/10 9/7/7
f 7/9/9 6/11/11 11/12/12 10/10/10
f 6/11/11 5/1/1 12/4/4 11/12/12
f 7/9/9 17/13/13 16/14/14 6/11/11
f 5/1/1 15/15/15 14/16/16 3/2/2
f 1/5/5 13/17/17 18/18/18 8/6/6
f 41/19/19 20/20/20 19/21/21 48/22/22
f 27/23/23 24/24/24 25/25/25 26/26/26
f 22/27/27 23/28/28 30/29/29 21/30/30
f 21/30/30 30/29/29 31/31/31 29/32/32
f 29/32/32 31/31/31 32/33/33 28/34/34
f 28/34/34 32/33/33 24/24/24 27/23/23
f 29/32/32 28/34/34 37/35/35 38/36/36
f 27/23/23 26/26/26 35/37/37 36/38/38
f 22/27/27 21/30/30 33/39/39 34/40/40
f 49/41/41 56/42/42 39/43/43 40/44/44
f 11/12/12 12/4/4 24/24/24 32/33/33
f 44/45/45 11/12/12 32/33/33 52/46/46
f 17/13/13 7/9/9 29/32/32 38/36/36
f 48/22/22 19/21/21 39/43/43 56/42/42
f 5/1/1 6/11/11 28/34/34 27/23/23
f 6/11/11 16/14/14 37/35/35 28/34/34
f 15/15/15 5/1/1 27/23/23 36/38/38
f 7/9/9 8/6/6 21/30/30 29/32/32
f 3/2/2 14/16/16 35/37/37 26/26/26
f 2/8/8 9/7/7 30/29/29 23/28/28
f 13/17/17 1/5/5 22/27/27 34/40/40
f 1/5/5 2/8/8 23/28/28 22/27/27
f 18/18/18 13/17/17 34/40/40 33/39/39
f 9/7/7 10/10/10 31/31/31 30/29/29
f 8/6/6 18/18/18 33/39/39 21/30/30
f 12/4/4 4/3/3 25/25/25 24/24/24
f 14/16/16 15/15/15 36/38/38 35/37/37
f 19/21/21 20/20/20 40/44/44 39/43/43
f 4/3/3 3/2/2 26/26/26 25/25/25
f 16/14/14 17/13/13 38/36/36 37/35/35
f 10/10/10 45/47/47 53/48/48 31/31/31
f 45/47/47 46/49/49 54/50/50 53/48/48
f 46/49/49 47/51/51 55/52/52 54/50/50
f 47/51/51 48/22/22 56/42/42 55/52/52
f 20/20/20 41/19/19 49/41/41 40/44/44
f 41/19/19 42/53/53 50/54/54 49/41/41
f 42/53/53 43/55/55 51/56/56 50/54/54
f 43/55/55 44/45/45 52/46/46 51/56/56
f 32/33/33 31/31/31 53/48/48 52/46/46
f 52/46/46 53/48/48 54/50/50 51/56/56
f 51/56/56 54/50/50 55/52/52 50/54/54
f 50/54/54 55/52/52 56/42/42 49/41/41
f 11/12/12 44/45/45 45/47/47 10/10/10
f 44/45/45 43/55/55 46/49/49 45/47/47
f 43/55/55 42/53/53 47/51/51 46/49/49
f 42/53/53 41/19/19 48/22/22 47/51/51
