# Blender v2.90.0 OBJ File: 'MineralRock.blend'
# www.blender.org
mtllib MineralRock.mtl
o Rock_Icosphere
v 1.213446 -0.422447 -0.874166
v 1.111861 0.814391 0.034389
v -0.090740 1.356995 0.026623
v 0.959482 -0.646208 -0.810331
v -0.994153 -0.458777 -0.056339
v 0.275082 -0.723268 0.595718
v -0.645554 -0.302021 0.961337
v -0.743723 -0.646661 -0.275308
v 0.363967 -0.469364 -1.384550
v 1.319379 0.220344 0.295667
v 1.205325 -0.184767 0.386124
v 1.242139 0.499554 -0.167299
v 0.961993 0.532112 0.945960
v 0.392484 0.511856 1.332412
v -0.414248 0.027265 1.205542
v -0.093008 -0.333497 -1.353295
v -1.113947 -0.124009 -0.111192
v -1.072039 0.337087 -0.115970
v 1.045604 -0.061614 -1.092920
v -0.328136 0.180561 -1.277349
v 0.225798 -0.005888 -1.441900
v 0.748425 0.898085 0.961822
v -0.856166 0.828268 0.174308
v 0.190326 1.307369 0.481346
v 0.374116 0.902939 1.131322
v 0.316553 1.295187 -0.573880
v -0.513931 1.031648 0.543587
v -0.546469 1.183497 0.111241
v -0.756812 0.928790 -0.323115
v 0.244495 1.061749 -0.975022
v -0.065652 1.246488 -0.723322
v -0.550003 0.961509 -0.761609
v -0.128309 1.212287 0.641072
v 0.621782 1.105021 0.660378
v 1.075786 0.575178 -0.564106
v -0.333605 0.799508 -1.121081
v -0.686938 0.528822 -1.029193
v 0.093864 0.691457 1.258559
v 1.240961 0.516962 0.469536
v 0.777764 -0.412092 -1.296617
v -1.032179 -0.393606 -0.385911
v -0.934058 0.349333 0.738668
v -0.995445 0.058189 0.734627
v 0.030469 -0.145669 1.439993
v 0.327472 -0.201022 1.352566
v 1.184691 -0.278063 -0.210616
v 0.461989 -0.717182 -1.026270
v -0.018438 -0.566600 -1.187264
v -0.010296 -0.549346 1.185079
v 0.807518 -0.533172 0.620819
vt 0.442629 0.044733
vt 0.397324 0.123205
vt 0.475484 0.257340
vt 0.627595 0.360138
vt 0.515478 0.389386
vt 0.567450 0.456311
vt 0.669156 0.907923
vt 0.574380 0.808676
vt 0.591071 0.929618
vt 0.789877 0.686328
vt 0.647774 0.578130
vt 0.414426 0.707887
vt 0.352019 0.829451
vt 0.290486 0.779086
vt 0.247086 0.916531
vt 0.170798 0.829451
vt 0.189527 0.704948
vt 0.088253 0.716934
vt 0.280632 0.639211
vt 0.000037 0.716934
vt -0.152400 0.651708
vt -0.127992 0.807021
vt -0.243155 0.740230
vt 1.439346 0.829451
vt 1.335626 0.806745
vt 1.376063 0.939060
vt 1.281051 0.869162
vt 1.445361 0.745067
vt 1.181987 0.697576
vt 1.254587 0.601166
vt 1.153040 0.697576
vt 1.002362 0.750979
vt 1.027827 0.865479
vt 0.895682 0.829451
vt 0.842752 0.704160
vt 1.040656 0.672507
vt 0.753428 0.583057
vt 0.399880 0.466651
vt 0.273479 0.494656
vt 0.182224 0.574324
vt 0.329514 0.361540
vt -0.071566 0.549480
vt 1.354096 0.437092
vt 1.459261 0.550058
vt 1.147100 0.550920
vt 1.016930 0.568782
vt 0.894348 0.594035
vt 1.154502 0.372167
vt 0.907977 0.409328
vt 0.864155 0.515564
vt 0.442629 0.358621
vt 0.014508 0.373063
vt -0.066154 0.437092
vt -0.137297 0.304545
vt -0.312401 0.530273
vt -0.302561 0.437092
vt -0.418170 0.437092
vt -0.354334 0.324350
vt -0.463475 0.358621
vt 1.246315 0.385025
vt 0.785712 0.392153
vt 0.571997 0.268807
vt 0.377446 0.278276
vt 0.171441 0.217956
vt 0.032964 0.256739
vt -0.077296 0.304545
vt -0.287738 0.113220
vt -0.372966 0.201677
vt -0.191644 0.201677
vt 0.675916 0.268807
vt 0.911725 0.280149
vt 0.867605 0.153046
vt 0.759766 0.123205
vt 1.303429 0.280149
vt 1.218241 0.246056
vt 1.062678 0.280149
vt 1.109397 0.160698
vn 0.0861 -0.9762 0.1990
vn -0.3954 -0.9134 -0.0962
vn 0.0780 -0.9429 -0.3238
vn 0.8766 -0.3822 -0.2925
vn 0.4414 -0.3454 -0.8282
vn 0.7016 0.2224 -0.6770
vn 0.1321 0.9588 0.2514
vn 0.3321 0.9002 -0.2815
vn -0.1480 0.9889 0.0110
vn 0.7528 0.6566 -0.0467
vn 0.7683 0.4773 -0.4264
vn 0.2603 0.6418 -0.7213
vn -0.2091 0.8860 -0.4138
vn -0.5552 0.8286 0.0720
vn -0.6053 0.6835 -0.4080
vn -0.7708 0.6048 -0.2003
vn -0.2934 0.5054 -0.8115
vn -0.8361 0.5304 0.1394
vn -0.5762 0.6629 0.4780
vn -0.2804 0.8308 0.4808
vn 0.1171 0.6761 0.7274
vn -0.2579 0.4612 0.8490
vn 0.4447 0.8557 0.2645
vn 0.5458 0.6203 0.5632
vn 0.9489 0.2647 -0.1714
vn 0.0719 0.1505 -0.9860
vn -0.4705 0.0143 -0.8823
vn -0.7324 0.2067 -0.6488
vn -0.4149 -0.3380 -0.8448
vn -0.9667 0.2299 -0.1122
vn -0.5294 0.0512 0.8468
vn -0.7884 0.3319 0.5179
vn 0.2729 0.2163 0.9374
vn 0.7464 0.1169 0.6551
vn 0.9054 0.2987 0.3016
vn 0.4387 -0.3559 0.8251
vn 0.8495 -0.4256 0.3117
vn 0.9866 -0.0337 0.1595
vn 0.0573 -0.4999 -0.8642
vn -0.8351 -0.4227 -0.3520
vn -0.9953 -0.0808 -0.0523
vn -0.7472 -0.6447 0.1613
vn -0.8755 -0.1033 0.4721
vn -0.6077 -0.5448 0.5777
vn -0.1368 -0.1826 0.9736
vn 0.9057 -0.4192 0.0634
vn 0.4637 -0.8726 -0.1535
vn -0.3157 -0.7859 -0.5317
vn -0.0971 -0.7899 0.6054
vn 0.5692 -0.7246 0.3885
usemtl None
s 1
f 6/1/1 8/2/2 47/3/3
f 1/4/4 40/5/5 19/6/6
f 24/7/7 26/8/8 3/9/9
f 2/10/10 35/11/11 26/8/8
f 35/11/11 30/12/12 26/8/8
f 26/13/8 31/14/13 3/15/9
f 30/12/12 31/14/13 26/13/8
f 31/14/13 28/16/14 3/15/9
f 31/14/13 32/17/15 28/16/14
f 32/17/15 29/18/16 28/16/14
f 30/12/12 36/19/17 31/14/13
f 31/14/13 36/19/17 32/17/15
f 29/20/16 23/21/18 28/22/14
f 28/22/14 23/21/18 27/23/19
f 28/24/14 33/25/20 3/26/9
f 3/26/9 33/25/20 24/27/7
f 28/24/14 27/28/19 33/25/20
f 33/25/20 25/29/21 24/27/7
f 27/28/19 38/30/22 33/25/20
f 33/25/20 38/30/22 25/29/21
f 25/31/21 34/32/23 24/33/7
f 24/33/7 34/32/23 26/34/8
f 34/32/23 2/35/10 26/34/8
f 25/31/21 22/36/24 34/32/23
f 22/36/24 2/10/10 34/32/23
f 1/4/4 35/11/11 12/37/25
f 12/37/25 35/11/11 2/10/10
f 1/4/4 19/6/6 35/11/11
f 35/11/11 19/6/6 30/12/12
f 21/38/26 36/19/17 30/12/12
f 21/38/26 20/39/27 36/19/17
f 20/39/27 37/40/28 36/19/17
f 37/40/28 32/17/15 36/19/17
f 16/41/29 37/40/28 20/39/27
f 37/40/28 29/20/16 32/17/15
f 18/42/30 23/21/18 29/20/16
f 15/43/31 38/30/22 42/44/32
f 42/44/32 38/30/22 27/28/19
f 14/45/33 22/36/24 25/29/21
f 14/45/33 13/46/34 22/36/24
f 13/46/34 39/47/35 22/36/24
f 39/47/35 2/10/10 22/36/24
f 45/48/36 11/49/37 13/46/34
f 11/49/37 10/50/38 13/46/34
f 13/46/34 10/50/38 39/47/35
f 19/6/6 21/38/26 30/12/12
f 19/6/6 40/5/5 21/38/26
f 40/5/5 9/51/39 21/38/26
f 9/51/39 16/41/29 21/38/26
f 21/38/26 16/41/29 20/39/27
f 37/40/28 18/42/30 29/20/16
f 16/41/29 41/52/40 37/40/28
f 37/40/28 41/52/40 18/42/30
f 41/52/40 17/53/41 18/42/30
f 41/52/40 5/54/42 17/53/41
f 23/21/18 42/55/32 27/23/19
f 18/42/30 42/55/32 23/21/18
f 17/53/41 43/56/43 18/42/30
f 18/42/30 43/56/43 42/55/32
f 43/56/43 15/57/31 42/55/32
f 17/53/41 5/54/42 43/56/43
f 5/54/42 7/58/44 43/56/43
f 43/56/43 7/58/44 15/57/31
f 7/58/44 44/59/45 15/57/31
f 38/30/22 14/45/33 25/29/21
f 15/43/31 44/60/45 38/30/22
f 38/30/22 44/60/45 14/45/33
f 44/60/45 45/48/36 14/45/33
f 14/45/33 45/48/36 13/46/34
f 39/47/35 12/37/25 2/10/10
f 39/47/35 10/50/38 12/37/25
f 11/49/37 46/61/46 10/50/38
f 10/50/38 46/61/46 12/37/25
f 46/61/46 1/4/4 12/37/25
f 4/62/47 40/5/5 1/4/4
f 4/62/47 47/3/3 40/5/5
f 47/3/3 9/51/39 40/5/5
f 47/3/3 48/63/48 9/51/39
f 48/63/48 16/41/29 9/51/39
f 8/2/2 48/63/48 47/3/3
f 48/64/48 41/52/40 16/41/29
f 48/64/48 8/65/2 41/52/40
f 8/65/2 5/66/42 41/52/40
f 6/67/1 49/68/49 8/69/2
f 8/69/2 49/68/49 5/54/42
f 49/68/49 7/58/44 5/54/42
f 46/61/46 4/70/47 1/4/4
f 11/49/37 50/71/50 46/61/46
f 46/61/46 50/71/50 4/70/47
f 50/71/50 6/72/1 4/70/47
f 4/70/47 6/72/1 47/73/3
f 7/74/44 49/75/49 44/60/45
f 49/75/49 45/48/36 44/60/45
f 49/75/49 50/76/50 45/48/36
f 49/75/49 6/77/1 50/76/50
f 50/76/50 11/49/37 45/48/36
o Mineral_Icosphere.001
v -0.823578 0.742070 -0.124588
v -0.928594 0.850460 0.371562
v -0.648943 0.834457 0.121757
v -0.950348 1.007111 0.094030
v -0.855265 0.508171 0.221998
v -1.169245 0.677042 0.125248
v -0.492579 0.849700 -1.088837
v -0.657963 0.739288 -0.740466
v -0.458565 0.915738 -0.856151
v -0.718538 0.893532 -0.923735
v -0.433383 0.609148 -0.879479
v -0.691979 0.597145 -1.000424
v 0.762745 0.848772 -0.873968
v 0.850093 0.656196 -0.533102
v 0.949864 0.857267 -0.717204
v 0.709363 0.849364 -0.595782
v 0.906182 0.565545 -0.807572
v 0.633483 0.580389 -0.723558
v 1.170382 0.716493 0.124000
v 1.089153 0.800332 0.507768
v 1.305461 0.787953 0.314546
v 1.072326 0.921500 0.293099
v 1.145872 0.535574 0.392081
v 0.903011 0.666194 0.317246
v 0.525523 0.978502 0.613729
v 0.422167 1.085179 1.102036
v 0.697398 1.069429 0.856180
v 0.400757 1.239354 0.828891
v 0.494337 0.748301 0.954836
v 0.185320 0.914502 0.859616
v -0.366701 0.551997 0.765005
v -0.524092 0.764975 1.066292
v -0.400812 0.790578 0.804713
v -0.613454 0.639688 0.872992
v -0.246740 0.668968 1.042723
v -0.453914 0.475352 1.077864
v 0.107874 1.286131 -0.138846
v 0.026645 1.369970 0.244922
v 0.242953 1.357591 0.051700
v 0.009819 1.491138 0.030253
v 0.083364 1.105212 0.129236
v -0.159497 1.235832 0.054400
v -0.286977 1.157024 -0.614630
v -0.395625 1.269163 -0.101320
v -0.106302 1.252606 -0.359765
v -0.418132 1.431232 -0.388451
v -0.319760 0.915036 -0.256057
v -0.644599 1.089747 -0.356153
v -0.182919 1.142589 0.349427
v -0.390803 1.123946 0.691979
v -0.130201 1.069214 0.576358
v -0.269139 1.300042 0.568544
v -0.382753 0.921834 0.478010
v -0.507278 1.172791 0.421816
v 0.727940 0.959363 0.032394
v 0.549548 1.292993 0.165706
v 0.807473 1.161530 0.144033
v 0.630382 1.211216 -0.052986
v 0.578384 1.037596 0.309365
v 0.408766 1.044610 0.079530
v 0.309041 0.975902 -1.132909
v 0.170970 1.118409 -0.480589
v 0.538645 1.097369 -0.809024
v 0.142368 1.324368 -0.845479
v 0.267380 0.668380 -0.677230
v -0.145429 0.890405 -0.804434
vt 0.272727 0.000000
vt 0.167363 0.202204
vt 0.457463 0.221189
vt 0.337204 0.358994
vt 0.800786 0.117650
vt 0.658666 0.274305
vt 0.840484 0.274305
vt 0.985060 0.289045
vt 0.727272 0.393651
vt 0.910466 0.419556
vt 0.465662 0.221189
vt 0.544360 0.420043
vt 0.272727 0.000000
vt 0.167363 0.202204
vt 0.457463 0.221189
vt 0.337204 0.358994
vt 0.800786 0.117650
vt 0.658666 0.274305
vt 0.840484 0.274305
vt 0.985060 0.289045
vt 0.727272 0.393651
vt 0.910466 0.419556
vt 0.465662 0.221189
vt 0.544360 0.420043
vt 0.272727 0.000000
vt 0.167363 0.202204
vt 0.457463 0.221189
vt 0.337204 0.358994
vt 0.800786 0.117650
vt 0.658666 0.274305
vt 0.840484 0.274305
vt 0.985060 0.289045
vt 0.727272 0.393651
vt 0.910466 0.419556
vt 0.465662 0.221189
vt 0.544360 0.420043
vt 0.272727 0.000000
vt 0.167363 0.202204
vt 0.457463 0.221189
vt 0.337204 0.358994
vt 0.800786 0.117650
vt 0.658666 0.274305
vt 0.840484 0.274305
vt 0.985060 0.289045
vt 0.727272 0.393651
vt 0.910466 0.419556
vt 0.465662 0.221189
vt 0.544360 0.420043
vt 0.272727 0.000000
vt 0.167363 0.202204
vt 0.457463 0.221189
vt 0.337204 0.358994
vt 0.800786 0.117650
vt 0.658666 0.274305
vt 0.840484 0.274305
vt 0.985060 0.289045
vt 0.727272 0.393651
vt 0.910466 0.419556
vt 0.465662 0.221189
vt 0.544360 0.420043
vt 0.272727 0.000000
vt 0.167363 0.202204
vt 0.457463 0.221189
vt 0.337204 0.358994
vt 0.800786 0.117650
vt 0.658666 0.274305
vt 0.840484 0.274305
vt 0.985060 0.289045
vt 0.727272 0.393651
vt 0.910466 0.419556
vt 0.465662 0.221189
vt 0.544360 0.420043
vt 0.272727 0.000000
vt 0.167363 0.202204
vt 0.457463 0.221189
vt 0.337204 0.358994
vt 0.800786 0.117650
vt 0.658666 0.274305
vt 0.840484 0.274305
vt 0.985060 0.289045
vt 0.727272 0.393651
vt 0.910466 0.419556
vt 0.465662 0.221189
vt 0.544360 0.420043
vt 0.272727 0.000000
vt 0.167363 0.202204
vt 0.457463 0.221189
vt 0.337204 0.358994
vt 0.800786 0.117650
vt 0.658666 0.274305
vt 0.840484 0.274305
vt 0.985060 0.289045
vt 0.727272 0.393651
vt 0.910466 0.419556
vt 0.465662 0.221189
vt 0.544360 0.420043
vt 0.272727 0.000000
vt 0.167363 0.202204
vt 0.457463 0.221189
vt 0.337204 0.358994
vt 0.800786 0.117650
vt 0.658666 0.274305
vt 0.840484 0.274305
vt 0.985060 0.289045
vt 0.727272 0.393651
vt 0.910466 0.419556
vt 0.465662 0.221189
vt 0.544360 0.420043
vt 0.272727 0.000000
vt 0.167363 0.202204
vt 0.457463 0.221189
vt 0.337204 0.358994
vt 0.800786 0.117650
vt 0.658666 0.274305
vt 0.840484 0.274305
vt 0.985060 0.289045
vt 0.727272 0.393651
vt 0.910466 0.419556
vt 0.465662 0.221189
vt 0.544360 0.420043
vt 0.272727 0.000000
vt 0.167363 0.202204
vt 0.457463 0.221189
vt 0.337204 0.358994
vt 0.800786 0.117650
vt 0.658666 0.274305
vt 0.840484 0.274305
vt 0.985060 0.289045
vt 0.727272 0.393651
vt 0.910466 0.419556
vt 0.465662 0.221189
vt 0.544360 0.420043
vn 0.2055 -0.9281 0.3103
vn -0.9560 -0.2820 -0.0806
vn 0.2073 -0.1251 -0.9702
vn -0.2409 0.9527 -0.1854
vn 0.9689 0.2455 0.0306
vn -0.0823 0.3187 0.9442
vn 0.6983 -0.6921 0.1827
vn -0.5475 -0.7222 -0.4226
vn 0.3652 0.3460 -0.8642
vn -0.7573 0.6491 -0.0725
vn 0.5869 0.7185 0.3732
vn -0.3869 -0.1206 0.9142
vn 0.5311 -0.7087 -0.4643
vn -0.7931 -0.6048 -0.0708
vn -0.2390 0.5473 -0.8020
vn -0.5097 0.6399 0.5751
vn 0.7896 0.6135 0.0082
vn 0.2901 -0.3407 0.8943
vn 0.8844 0.1385 0.4457
vn -0.1216 -0.8043 0.5816
vn 0.3200 -0.5171 -0.7938
vn -0.9367 -0.0761 -0.3416
vn 0.1663 0.7724 -0.6130
vn -0.4415 0.6343 0.6347
vn -0.2812 -0.9478 -0.1504
vn -0.8550 0.2805 -0.4363
vn 0.5567 0.1157 -0.8226
vn 0.2052 0.9439 0.2585
vn 0.8753 -0.2997 0.3795
vn -0.3755 -0.0149 0.9267
vn -0.1218 -0.3609 0.9246
vn -0.9176 -0.3379 -0.2092
vn 0.4726 -0.7860 -0.3985
vn 0.0549 0.4668 -0.8826
vn 0.9371 0.2777 0.2111
vn -0.3052 0.9063 0.2922
usemtl None
s 1
f 55/78/51 56/79/52 51/80/53
f 51/80/53 56/79/52 54/81/54
f 55/82/51 53/83/55 52/84/56
f 55/82/51 52/84/56 56/85/52
f 52/84/56 53/83/55 54/86/54
f 56/85/52 52/84/56 54/87/54
f 53/83/55 51/88/53 54/89/54
f 55/82/51 51/88/53 53/83/55
f 61/90/57 62/91/58 57/92/59
f 57/92/59 62/91/58 60/93/60
f 61/94/57 59/95/61 58/96/62
f 61/94/57 58/96/62 62/97/58
f 58/96/62 59/95/61 60/98/60
f 62/97/58 58/96/62 60/99/60
f 59/95/61 57/100/59 60/101/60
f 61/94/57 57/100/59 59/95/61
f 67/102/63 68/103/64 63/104/65
f 63/104/65 68/103/64 66/105/66
f 67/106/63 65/107/67 64/108/68
f 67/106/63 64/108/68 68/109/64
f 64/108/68 65/107/67 66/110/66
f 68/109/64 64/108/68 66/111/66
f 65/107/67 63/112/65 66/113/66
f 67/106/63 63/112/65 65/107/67
f 73/114/51 74/115/52 69/116/53
f 69/116/53 74/115/52 72/117/54
f 73/118/51 71/119/55 70/120/56
f 73/118/51 70/120/56 74/121/52
f 70/120/56 71/119/55 72/122/54
f 74/121/52 70/120/56 72/123/54
f 71/119/55 69/124/53 72/125/54
f 73/118/51 69/124/53 71/119/55
f 79/126/51 80/127/52 75/128/53
f 75/128/53 80/127/52 78/129/54
f 79/130/51 77/131/55 76/132/56
f 79/130/51 76/132/56 80/133/52
f 76/132/56 77/131/55 78/134/54
f 80/133/52 76/132/56 78/135/54
f 77/131/55 75/136/53 78/137/54
f 79/130/51 75/136/53 77/131/55
f 85/138/69 86/139/70 81/140/71
f 81/140/71 86/139/70 84/141/72
f 85/142/69 83/143/73 82/144/74
f 85/142/69 82/144/74 86/145/70
f 82/144/74 83/143/73 84/146/72
f 86/145/70 82/144/74 84/147/72
f 83/143/73 81/148/71 84/149/72
f 85/142/69 81/148/71 83/143/73
f 91/150/51 92/151/52 87/152/53
f 87/152/53 92/151/52 90/153/54
f 91/154/51 89/155/55 88/156/56
f 91/154/51 88/156/56 92/157/52
f 88/156/56 89/155/55 90/158/54
f 92/157/52 88/156/56 90/159/54
f 89/155/55 87/160/53 90/161/54
f 91/154/51 87/160/53 89/155/55
f 97/162/51 98/163/52 93/164/53
f 93/164/53 98/163/52 96/165/54
f 97/166/51 95/167/55 94/168/56
f 97/166/51 94/168/56 98/169/52
f 94/168/56 95/167/55 96/170/54
f 98/169/52 94/168/56 96/171/54
f 95/167/55 93/172/53 96/173/54
f 97/166/51 93/172/53 95/167/55
f 103/174/75 104/175/76 99/176/77
f 99/176/77 104/175/76 102/177/78
f 103/178/75 101/179/79 100/180/80
f 103/178/75 100/180/80 104/181/76
f 100/180/80 101/179/79 102/182/78
f 104/181/76 100/180/80 102/183/78
f 101/179/79 99/184/77 102/185/78
f 103/178/75 99/184/77 101/179/79
f 109/186/81 110/187/82 105/188/83
f 105/188/83 110/187/82 108/189/84
f 109/190/81 107/191/85 106/192/86
f 109/190/81 106/192/86 110/193/82
f 106/192/86 107/191/85 108/194/84
f 110/193/82 106/192/86 108/195/84
f 107/191/85 105/196/83 108/197/84
f 109/190/81 105/196/83 107/191/85
f 115/198/51 116/199/52 111/200/53
f 111/200/53 116/199/52 114/201/54
f 115/202/51 113/203/55 112/204/56
f 115/202/51 112/204/56 116/205/52
f 112/204/56 113/203/55 114/206/54
f 116/205/52 112/204/56 114/207/54
f 113/203/55 111/208/53 114/209/54
f 115/202/51 111/208/53 113/203/55
