# Blender v2.90.0 OBJ File: 'Pedestal.blend'
# www.blender.org
mtllib Pedestal.mtl
o Pedestal_Cube.002
v -0.800000 3.891837 0.800000
v -0.800000 3.891837 -0.800000
v 0.800000 3.891837 0.800000
v 0.800000 3.891837 -0.800000
v -0.720572 4.191837 0.720572
v -0.800000 4.112410 0.800000
v -0.776736 4.168573 0.776736
v -0.720572 4.191837 -0.720572
v -0.800000 4.112410 -0.800000
v -0.776736 4.168573 -0.776736
v 0.720572 4.191837 0.720572
v 0.800000 4.112410 0.800000
v 0.776736 4.168573 0.776736
v 0.720572 4.191837 -0.720572
v 0.800000 4.112410 -0.800000
v 0.776736 4.168573 -0.776736
v -1.000000 0.000000 -0.600000
v -1.000000 0.000000 0.600000
v -0.412662 4.000000 0.247597
v -0.412662 4.000000 -0.247597
v 1.000000 0.000000 0.600000
v 1.000000 0.000000 -0.600000
v 0.412662 4.000000 -0.247597
v 0.412662 4.000000 0.247597
v 0.600000 0.000000 -1.000000
v -0.600000 0.000000 -1.000000
v -0.247597 4.000000 -0.412662
v 0.247597 4.000000 -0.412662
v -0.600000 0.000000 1.000000
v 0.600000 0.000000 1.000000
v 0.247597 4.000000 0.412662
v -0.247597 4.000000 0.412662
v -1.271536 0.000000 0.600000
v -1.192005 0.000000 1.192005
v -0.678103 4.000000 0.678103
v -0.651681 4.000000 -0.307509
v -0.678103 4.000000 -0.678103
v -1.192005 0.000000 -1.192005
v -0.600000 0.000000 -1.271536
v 0.307509 4.000000 -0.651681
v 0.678103 4.000000 -0.678103
v 1.192005 0.000000 -1.192005
v 1.271536 0.000000 -0.600000
v 0.651681 4.000000 0.307509
v 0.678103 4.000000 0.678103
v 1.192005 0.000000 1.192005
v 0.600000 0.000000 1.271536
v -0.307509 4.000000 0.651681
v -1.271536 0.000000 -0.600000
v -0.651681 4.000000 0.307509
v 1.271536 0.000000 0.600000
v 0.651681 4.000000 -0.307509
v 0.600000 0.000000 -1.271536
v -0.307509 4.000000 -0.651681
v -0.600000 0.000000 1.271536
v 0.307509 4.000000 0.651681
v 0.734471 3.265529 -0.440683
v 0.930193 2.139614 -0.558116
v 0.999828 1.000517 -0.599897
v 0.734471 3.265529 0.440683
v 0.930193 2.139614 0.558116
v 0.999828 1.000517 0.599897
v -0.734471 3.265529 0.440683
v -0.930193 2.139614 0.558116
v -0.999828 1.000517 0.599897
v -0.734471 3.265529 -0.440683
v -0.930193 2.139614 -0.558116
v -0.999828 1.000517 -0.599897
v 0.440683 3.265529 0.734471
v 0.558116 2.139614 0.930193
v 0.599897 1.000517 0.999828
v -0.440683 3.265529 0.734471
v -0.558116 2.139614 0.930193
v -0.599897 1.000517 0.999828
v -0.440683 3.265529 -0.734471
v -0.558116 2.139614 -0.930193
v -0.599897 1.000517 -0.999828
v 0.440683 3.265529 -0.734471
v 0.558116 2.139614 -0.930193
v 0.599897 1.000517 -0.999828
v -1.192005 1.000000 1.192005
v -1.137551 2.091365 1.137551
v -0.995777 3.164620 0.995777
v -0.995777 3.164620 -0.995777
v -1.137551 2.091365 -1.137551
v -1.192005 1.000000 -1.192005
v 0.995777 3.164620 -0.995777
v 1.137551 2.091365 -1.137551
v 1.192005 1.000000 -1.192005
v 0.995777 3.164620 0.995777
v 1.137551 2.091365 1.137551
v 1.192005 1.000000 1.192005
v 0.945716 3.256241 -0.446255
v 1.188778 2.130170 -0.560949
v 1.271515 1.000049 -0.599990
v 0.945716 3.256241 0.446255
v 1.188778 2.130170 0.560949
v 1.271515 1.000049 0.599990
v -0.945716 3.256241 0.446255
v -1.188778 2.130170 0.560949
v -1.271515 1.000049 0.599990
v -0.945716 3.256241 -0.446255
v -1.188778 2.130170 -0.560949
v -1.271515 1.000049 -0.599990
v 0.446255 3.256241 0.945716
v 0.560949 2.130170 1.188778
v 0.599990 1.000049 1.271515
v -0.446255 3.256241 0.945716
v -0.560949 2.130170 1.188778
v -0.599990 1.000049 1.271515
v -0.446255 3.256241 -0.945716
v -0.560949 2.130170 -1.188778
v -0.599990 1.000049 -1.271515
v 0.446255 3.256241 -0.945716
v 0.560949 2.130170 -1.188778
v 0.599990 1.000049 -1.271515
vt 0.579006 0.399564
vt 0.938488 0.399564
vt 0.938488 0.759046
vt 0.579006 0.759046
vt 0.198254 0.077599
vt 0.229057 0.122250
vt 0.059972 0.414518
vt 0.000152 0.406570
vt 0.126965 0.808012
vt 0.177024 0.764627
vt 0.578007 0.935361
vt 0.549889 0.999848
vt 0.579006 0.000152
vt 0.978114 0.000152
vt 0.978114 0.399260
vt 0.579006 0.399260
vt 0.568025 0.000152
vt 0.578702 0.051128
vt 0.202919 0.740440
vt 0.569830 0.890913
vt 0.578702 0.915132
vt 0.189733 0.752573
vt 0.566140 0.083473
vt 0.246595 0.146420
vt 0.238255 0.134431
vt 0.575938 0.067541
vt 0.092281 0.417493
vt 0.076448 0.415708
vt 0.163173 0.170636
vt 0.079596 0.144567
vt 0.094178 0.098715
vt 0.176340 0.125522
vt 0.103696 0.632259
vt 0.019167 0.652003
vt 0.009273 0.604221
vt 0.092407 0.589374
vt 0.734851 0.592372
vt 0.825292 0.591035
vt 0.857235 0.671148
vt 0.790048 0.736872
vt 0.858173 0.714157
vt 0.794667 0.773536
vt 0.292271 0.592374
vt 0.382712 0.591037
vt 0.414655 0.671150
vt 0.347468 0.736874
vt 0.348421 0.259738
vt 0.415052 0.324582
vt 0.383046 0.404618
vt 0.291391 0.404095
vt 0.791000 0.259736
vt 0.857632 0.324579
vt 0.825626 0.404615
vt 0.733971 0.404092
vt 0.352088 0.773538
vt 0.415593 0.714159
vt 0.442447 0.775176
vt 0.381954 0.866191
vt 0.713207 0.431390
vt 0.796313 0.435789
vt 0.768937 0.498287
vt 0.674682 0.498491
vt 0.885026 0.775174
vt 0.824533 0.866190
vt 0.270627 0.431392
vt 0.353733 0.435791
vt 0.326357 0.498290
vt 0.232103 0.498494
vt 0.796320 0.560485
vt 0.713761 0.565305
vt 0.353740 0.560487
vt 0.271181 0.565307
vt 0.381134 0.130306
vt 0.442447 0.220838
vt 0.415946 0.281887
vt 0.352529 0.223186
vt 0.823713 0.130303
vt 0.885026 0.220835
vt 0.858525 0.281884
vt 0.795108 0.223184
vt 0.605753 0.170634
vt 0.522176 0.144566
vt 0.536758 0.098715
vt 0.618919 0.125520
vt 0.546275 0.632257
vt 0.461746 0.652000
vt 0.451852 0.604218
vt 0.534987 0.589371
vt 0.637924 0.612286
vt 0.620882 0.576467
vt 0.461410 0.345632
vt 0.546088 0.365275
vt 0.534828 0.408172
vt 0.451613 0.393472
vt 0.637500 0.385252
vt 0.620622 0.420960
vt 0.698215 0.207551
vt 0.707231 0.164300
vt 0.018830 0.345634
vt 0.103508 0.365277
vt 0.092248 0.408174
vt 0.009033 0.393474
vt 0.194920 0.385254
vt 0.178042 0.420962
vt 0.080086 0.855556
vt 0.163815 0.828625
vt 0.177472 0.873632
vt 0.095310 0.901470
vt 0.255877 0.790601
vt 0.265378 0.833698
vt 0.570813 0.000133
vt 0.653332 0.028639
vt 0.741104 0.070267
vt 0.128235 0.000133
vt 0.210754 0.028641
vt 0.298526 0.070270
vt 0.264652 0.164302
vt 0.000133 0.498862
vt 0.080432 0.498771
vt 0.158015 0.498679
vt 0.178302 0.576469
vt 0.442713 0.498859
vt 0.523012 0.498769
vt 0.600595 0.498676
vt 0.537889 0.901468
vt 0.620050 0.873630
vt 0.655733 0.970167
vt 0.573368 0.999865
vt 0.707957 0.833696
vt 0.742983 0.927242
vt 0.213154 0.970169
vt 0.130789 0.999867
vt 0.300405 0.927244
vt 0.255635 0.207554
vt 0.195345 0.612288
vt 0.522665 0.855554
vt 0.606394 0.828623
vt 0.698457 0.790600
vn 0.1481 0.9778 -0.1481
vn -0.1481 0.9778 -0.1481
vn -0.1481 0.9778 0.1481
vn 0.1481 0.9778 0.1481
vn 1.0000 0.0000 0.0000
vn 0.9856 0.1693 0.0000
vn -1.0000 0.0000 0.0000
vn -0.9856 0.1693 0.0000
vn 0.0000 -1.0000 0.0000
vn 0.0000 0.0000 -1.0000
vn 0.0000 0.1693 -0.9856
vn -0.3827 0.9239 0.0000
vn -0.9239 0.3827 0.0000
vn 0.0000 0.9239 -0.3827
vn 0.0000 0.3827 -0.9239
vn 0.3827 0.9239 0.0000
vn 0.9239 0.3827 0.0000
vn 0.0000 0.9239 0.3827
vn 0.0000 0.3827 0.9239
vn 0.0000 0.1693 0.9856
vn 0.0000 0.0000 1.0000
vn -0.9998 -0.0180 0.0026
vn -1.0000 -0.0001 0.0002
vn -0.9998 -0.0172 0.0025
vn -0.0026 -0.0180 -0.9998
vn -0.0002 -0.0001 -1.0000
vn -0.0025 -0.0172 -0.9998
vn 0.9614 0.2753 0.0000
vn 0.9159 0.4013 0.0000
vn 0.0889 -0.1371 -0.9866
vn 0.1388 -0.1615 -0.9771
vn 0.0623 -0.1240 -0.9903
vn -0.9614 0.2753 0.0000
vn -0.9159 0.4013 0.0000
vn 0.0000 0.2753 0.9614
vn 0.0000 0.4013 0.9159
vn 0.0000 0.2753 -0.9614
vn 0.0000 0.4013 -0.9159
vn -0.9596 0.2810 0.0173
vn -0.9357 0.3501 0.0429
vn -0.9712 0.2384 0.0017
vn -0.0173 0.2810 -0.9596
vn -0.0429 0.3501 -0.9357
vn -0.0017 0.2384 -0.9712
vn 0.9596 0.2810 -0.0173
vn 0.9357 0.3501 -0.0429
vn 0.9712 0.2384 -0.0017
vn 0.0173 0.2810 0.9596
vn 0.0429 0.3501 0.9357
vn 0.0017 0.2384 0.9712
vn 0.9712 0.2384 0.0017
vn 0.9357 0.3501 0.0429
vn 0.9596 0.2810 0.0173
vn -0.9712 0.2384 -0.0017
vn -0.9357 0.3501 -0.0429
vn -0.9596 0.2810 -0.0173
vn -0.0017 0.2384 0.9712
vn -0.0429 0.3501 0.9357
vn -0.0173 0.2810 0.9596
vn 0.0017 0.2384 -0.9712
vn 0.0429 0.3501 -0.9357
vn 0.0173 0.2810 -0.9596
vn -0.0889 -0.1371 0.9866
vn -0.1388 -0.1615 0.9771
vn -0.0623 -0.1240 0.9903
vn 0.9866 -0.1371 0.0889
vn 0.9771 -0.1615 0.1388
vn 0.9903 -0.1240 0.0623
vn 0.9998 -0.0180 -0.0026
vn 1.0000 -0.0001 -0.0002
vn 0.9998 -0.0172 -0.0025
vn -0.9866 -0.1371 -0.0889
vn -0.9771 -0.1615 -0.1388
vn -0.9903 -0.1240 -0.0623
vn 0.0026 -0.0180 0.9998
vn 0.0002 -0.0001 1.0000
vn 0.0025 -0.0172 0.9998
vn 0.1388 -0.1615 0.9771
vn 0.0889 -0.1371 0.9866
vn 0.0623 -0.1240 0.9903
vn 0.0098 -0.0706 0.9975
vn 0.0088 -0.0637 0.9979
vn -1.0000 -0.0001 -0.0002
vn -0.9998 -0.0180 -0.0026
vn -0.9998 -0.0172 -0.0025
vn -0.9975 -0.0706 -0.0098
vn -0.9979 -0.0637 -0.0088
vn 0.9771 -0.1615 -0.1388
vn 0.9866 -0.1371 -0.0889
vn 0.9903 -0.1240 -0.0623
vn 0.9975 -0.0706 -0.0098
vn 0.9979 -0.0637 -0.0088
vn 1.0000 -0.0001 0.0002
vn 0.9998 -0.0180 0.0026
vn 0.9998 -0.0172 0.0025
vn 0.9975 -0.0706 0.0098
vn 0.9979 -0.0637 0.0088
vn -0.0002 -0.0001 1.0000
vn -0.0026 -0.0180 0.9998
vn -0.0025 -0.0172 0.9998
vn -0.0098 -0.0706 0.9975
vn -0.0088 -0.0637 0.9979
vn -0.1331 0.0000 -0.9911
vn -0.1233 0.0326 -0.9918
vn -0.1231 0.0333 -0.9918
vn -0.0718 0.1154 -0.9907
vn -0.0639 0.1248 -0.9901
vn 0.1331 0.0000 0.9911
vn 0.1233 0.0326 0.9918
vn 0.1231 0.0333 0.9918
vn 0.0718 0.1154 0.9907
vn 0.0639 0.1248 0.9901
vn -0.9911 0.0000 0.1331
vn -0.9918 0.0326 0.1233
vn -0.9918 0.0333 0.1231
vn -0.9907 0.1154 0.0718
vn -0.9901 0.1248 0.0639
vn 0.9911 0.0000 -0.1331
vn 0.9918 0.0326 -0.1233
vn 0.9918 0.0333 -0.1231
vn 0.9907 0.1154 -0.0718
vn 0.9901 0.1248 -0.0639
vn -0.1331 0.0000 0.9911
vn -0.1231 0.0333 0.9918
vn -0.1233 0.0326 0.9918
vn -0.0639 0.1248 0.9901
vn -0.0718 0.1154 0.9907
vn 0.9911 0.0000 0.1331
vn 0.9918 0.0333 0.1231
vn 0.9918 0.0326 0.1233
vn 0.9901 0.1248 0.0639
vn 0.9907 0.1154 0.0718
vn 0.1331 0.0000 -0.9911
vn 0.1231 0.0333 -0.9918
vn 0.1233 0.0326 -0.9918
vn 0.0639 0.1248 -0.9901
vn 0.0718 0.1154 -0.9907
vn -0.9911 0.0000 -0.1331
vn -0.9918 0.0333 -0.1231
vn -0.9918 0.0326 -0.1233
vn -0.9901 0.1248 -0.0639
vn -0.9907 0.1154 -0.0718
vn 0.0000 0.0002 -1.0000
vn 0.0000 0.0302 -0.9995
vn 0.0000 0.1138 -0.9935
vn 0.0000 0.0002 1.0000
vn 0.0000 0.0302 0.9995
vn 0.0000 0.1138 0.9935
vn -1.0000 0.0002 0.0000
vn -0.9995 0.0302 0.0000
vn -0.9935 0.1138 0.0000
vn 0.0002 -0.0001 -1.0000
vn 0.0026 -0.0180 -0.9998
vn 0.0025 -0.0172 -0.9998
vn 0.0098 -0.0706 -0.9975
vn 0.0088 -0.0637 -0.9979
vn 1.0000 0.0002 0.0000
vn 0.9995 0.0302 0.0000
vn 0.9935 0.1138 0.0000
vn -0.1388 -0.1615 -0.9771
vn -0.0889 -0.1371 -0.9866
vn -0.0623 -0.1240 -0.9903
vn -0.0098 -0.0706 -0.9975
vn -0.0088 -0.0637 -0.9979
vn -0.9771 -0.1615 0.1388
vn -0.9866 -0.1371 0.0889
vn -0.9903 -0.1240 0.0623
vn -0.9975 -0.0706 0.0098
vn -0.9979 -0.0637 0.0088
usemtl None
s 1
f 14/1/1 8/2/2 5/3/3 11/4/4
f 4/5/5 15/6/6 12/7/6 3/8/5
f 1/9/7 6/10/8 9/11/8 2/12/7
f 2/13/9 4/14/9 3/15/9 1/16/9
f 2/17/10 9/18/11 15/6/11 4/5/10
f 5/19/3 8/20/2 10/21/12 7/22/12
f 7/22/13 10/21/13 9/11/8 6/10/8
f 8/23/2 14/24/1 16/25/14 10/26/14
f 10/26/15 16/25/15 15/6/11 9/18/11
f 14/24/1 11/27/4 13/28/16 16/25/16
f 16/25/17 13/28/17 12/7/6 15/6/6
f 11/27/4 5/19/3 7/22/18 13/28/18
f 13/28/19 7/22/19 6/10/20 12/7/20
f 3/8/21 12/7/20 6/10/20 1/9/21
f 71/29/22 30/30/23 47/31/23 107/32/24
f 65/33/25 18/34/26 33/35/26 101/36/27
f 57/37/28 23/38/29 24/39/29 60/40/28
f 60/40/30 24/39/31 44/41/31 96/42/32
f 63/43/33 19/44/34 20/45/34 66/46/33
f 69/47/35 31/48/36 32/49/36 72/50/35
f 75/51/37 27/52/38 28/53/38 78/54/37
f 102/55/39 36/56/40 37/57/40 84/58/41
f 114/59/42 40/60/43 41/61/43 87/62/44
f 96/42/45 44/41/46 45/63/46 90/64/47
f 108/65/48 48/66/49 35/67/49 83/68/50
f 87/62/51 41/61/52 52/69/52 93/70/53
f 83/68/54 35/67/55 50/71/55 99/72/56
f 90/73/57 45/74/58 56/75/58 105/76/59
f 84/77/60 37/78/61 54/79/61 111/80/62
f 66/46/63 20/45/64 36/56/64 102/55/65
f 72/50/66 32/49/67 48/66/67 108/65/68
f 77/81/69 26/82/70 39/83/70 113/84/71
f 78/54/72 28/53/73 40/60/73 114/59/74
f 59/85/75 22/86/76 43/87/76 95/88/77
f 23/38/78 57/37/79 93/70/80 52/69/78
f 57/37/79 58/89/81 94/90/82 93/70/80
f 58/89/81 59/85/75 95/88/77 94/90/82
f 25/91/83 80/92/84 116/93/85 53/94/83
f 80/92/84 79/95/86 115/96/87 116/93/85
f 79/95/86 78/54/72 114/59/74 115/96/87
f 27/52/88 75/51/89 111/80/90 54/79/88
f 75/51/89 76/97/91 112/98/92 111/80/90
f 76/97/91 77/81/69 113/84/71 112/98/92
f 29/99/93 74/100/94 110/101/95 55/102/93
f 74/100/94 73/103/96 109/104/97 110/101/95
f 73/103/96 72/50/66 108/65/68 109/104/97
f 17/105/98 68/106/99 104/107/100 49/108/98
f 68/106/99 67/109/101 103/110/102 104/107/100
f 67/109/101 66/46/63 102/55/65 103/110/102
f 38/111/103 86/112/104 113/84/105 39/83/103
f 86/112/104 85/113/106 112/98/107 113/84/105
f 85/113/106 84/77/60 111/80/62 112/98/107
f 46/114/108 92/115/109 107/32/110 47/31/108
f 92/115/109 91/116/111 106/117/112 107/32/110
f 91/116/111 90/73/57 105/76/59 106/117/112
f 34/118/113 81/119/114 101/36/115 33/35/113
f 81/119/114 82/120/116 100/121/117 101/36/115
f 82/120/116 83/68/54 99/72/56 100/121/117
f 42/122/118 89/123/119 95/88/120 43/87/118
f 89/123/119 88/124/121 94/90/122 95/88/120
f 88/124/121 87/62/51 93/70/53 94/90/122
f 55/102/123 110/101/124 81/119/125 34/118/123
f 110/101/124 109/104/126 82/120/127 81/119/125
f 109/104/126 108/65/48 83/68/50 82/120/127
f 51/125/128 98/126/129 92/127/130 46/128/128
f 98/126/129 97/129/131 91/130/132 92/127/130
f 97/129/131 96/42/45 90/64/47 91/130/132
f 53/94/133 116/93/134 89/123/135 42/122/133
f 116/93/134 115/96/136 88/124/137 89/123/135
f 115/96/136 114/59/42 87/62/44 88/124/137
f 49/108/138 104/107/139 86/131/140 38/132/138
f 104/107/139 103/110/141 85/133/142 86/131/140
f 103/110/141 102/55/39 84/58/41 85/133/142
f 26/82/143 77/81/144 80/92/144 25/91/143
f 77/81/144 76/97/145 79/95/145 80/92/144
f 76/97/145 75/51/37 78/54/37 79/95/145
f 30/30/146 71/29/147 74/100/147 29/99/146
f 71/29/147 70/134/148 73/103/148 74/100/147
f 70/134/148 69/47/35 72/50/35 73/103/148
f 18/34/149 65/33/150 68/106/150 17/105/149
f 65/33/150 64/135/151 67/109/151 68/106/150
f 64/135/151 63/43/33 66/46/33 67/109/151
f 21/136/152 62/137/153 98/126/154 51/125/152
f 62/137/153 61/138/155 97/129/156 98/126/154
f 61/138/155 60/40/30 96/42/32 97/129/156
f 22/86/157 59/85/158 62/137/158 21/136/157
f 59/85/158 58/89/159 61/138/159 62/137/158
f 58/89/159 57/37/28 60/40/28 61/138/159
f 19/44/160 63/43/161 99/72/162 50/71/160
f 63/43/161 64/135/163 100/121/164 99/72/162
f 64/135/163 65/33/25 101/36/27 100/121/164
f 31/48/165 69/47/166 105/76/167 56/75/165
f 69/47/166 70/134/168 106/117/169 105/76/167
f 70/134/168 71/29/22 107/32/24 106/117/169
